<?xml version="1.0" standalone="no"?>
<!DOCTYPE svg PUBLIC "-//W3C//DTD SVG 20010904//EN"
 "http://www.w3.org/TR/2001/REC-SVG-20010904/DTD/svg10.dtd">
<svg version="1.0" xmlns="http://www.w3.org/2000/svg"
 width="512.000000pt" height="512.000000pt" viewBox="0 0 512.000000 512.000000"
 preserveAspectRatio="xMidYMid meet">

<g transform="translate(0.000000,512.000000) scale(0.100000,-0.100000)"
fill="#000000" stroke="none">
<path d="M2493 5099 c-61 -30 -83 -81 -83 -192 l0 -87 -87 0 c-112 0 -162 -22
-192 -84 -26 -52 -26 -79 -2 -133 29 -62 76 -83 191 -83 l90 0 0 -104 0 -104
69 -56 c39 -31 74 -56 79 -56 5 0 19 12 33 26 13 14 45 42 72 61 l47 35 0 99
0 99 91 0 c103 0 147 15 181 62 50 72 25 179 -52 218 -31 16 -59 20 -130 20
l-90 0 0 90 c0 112 -20 159 -80 190 -50 25 -84 25 -137 -1z"/>
<path d="M3165 4195 c-154 -29 -272 -93 -402 -219 l-53 -50 0 -1063 0 -1063
515 0 515 0 47 72 c201 314 353 694 404 1013 20 121 17 382 -4 485 -57 273
-180 497 -357 645 -189 159 -430 224 -665 180z"/>
<path d="M1665 4185 c-372 -70 -642 -377 -731 -831 -22 -109 -24 -342 -5 -464
50 -321 188 -668 399 -1002 l55 -88 513 0 514 0 0 1059 0 1059 -62 57 c-203
186 -434 257 -683 210z"/>
<path d="M4355 3807 c204 -430 203 -921 -1 -1469 -53 -140 -143 -335 -210
-450 -25 -43 -43 -82 -40 -87 3 -4 31 -11 63 -14 111 -13 230 -60 328 -132
l50 -36 39 43 c217 239 401 537 474 769 150 471 9 1017 -334 1289 -111 89
-215 135 -386 174 l-27 6 44 -93z"/>
<path d="M713 3875 c-293 -79 -521 -303 -638 -625 -66 -185 -90 -419 -62 -606
47 -303 214 -616 510 -956 27 -32 54 -58 58 -58 5 0 30 15 56 34 93 66 221
116 336 131 26 3 47 8 47 11 0 3 -29 58 -65 123 -202 365 -321 755 -340 1111
-14 255 39 523 150 758 50 105 50 104 -52 77z"/>
<path d="M990 1493 c-189 -32 -339 -181 -370 -369 -13 -77 -13 -671 0 -748 30
-183 183 -336 366 -366 80 -13 3068 -13 3148 0 180 29 331 178 366 359 13 70
13 692 0 762 -34 180 -179 325 -359 359 -52 10 -3093 13 -3151 3z m1651 -303
c235 -45 399 -275 361 -506 -40 -244 -264 -411 -503 -376 -247 37 -418 265
-380 508 39 251 276 421 522 374z m-1515 -306 c73 -35 105 -133 66 -204 -22
-41 -84 -80 -126 -80 -53 0 -113 37 -135 84 -26 53 -26 79 -1 131 36 74 122
104 196 69z m600 0 c73 -35 105 -133 66 -204 -22 -41 -84 -80 -126 -80 -53 0
-113 37 -135 84 -26 53 -26 79 -1 131 36 74 122 104 196 69z m1800 0 c105 -50
110 -200 9 -260 -23 -13 -56 -24 -75 -24 -73 0 -150 77 -150 151 0 19 11 52
24 73 41 69 121 94 192 60z m608 -7 c71 -40 95 -122 57 -195 -22 -43 -84 -82
-131 -82 -72 0 -150 77 -150 149 0 49 35 108 78 130 49 26 98 26 146 -2z"/>
<path d="M2491 881 c-42 -22 -81 -85 -81 -130 0 -74 78 -151 154 -151 47 0
104 37 127 82 67 130 -71 268 -200 199z"/>
</g>
</svg>
