<svg width="683" height="683" viewBox="0 0 683 683" fill="none" xmlns="http://www.w3.org/2000/svg">
<path d="M332.198 2.61672C324.065 6.61672 321.131 13.4167 321.131 28.2167V39.8167H309.531C294.598 39.8167 287.931 42.7501 283.931 51.0167C280.465 57.9501 280.465 61.5501 283.665 68.7501C287.531 77.0167 293.798 79.8167 309.131 79.8167H321.131V93.6834V107.55L330.331 115.017C335.531 119.15 340.198 122.483 340.865 122.483C341.531 122.483 343.398 120.883 345.265 119.017C346.998 117.15 351.265 113.417 354.865 110.883L361.131 106.217V93.0167V79.8167H373.265C386.998 79.8167 392.865 77.8167 397.398 71.5501C404.065 61.9501 400.731 47.6834 390.465 42.4834C386.331 40.3501 382.598 39.8167 373.131 39.8167H361.131V27.8167C361.131 12.8834 358.465 6.61672 350.465 2.48339C343.798 -0.849945 339.265 -0.849945 332.198 2.61672Z" fill="white"/>
<path d="M421.799 123.15C401.266 127.017 385.533 135.55 368.199 152.35L361.133 159.017V300.75V442.483H429.799H498.466L504.733 432.883C531.533 391.017 551.799 340.35 558.599 297.817C561.266 281.683 560.866 246.883 558.066 233.15C550.466 196.75 534.066 166.883 510.466 147.15C485.266 125.95 453.133 117.283 421.799 123.15Z" fill="white"/>
<path d="M221.802 124.483C172.202 133.817 136.202 174.75 124.336 235.283C121.402 249.817 121.136 280.883 123.669 297.15C130.336 339.95 148.736 386.217 176.869 430.75L184.202 442.483H252.602H321.136V301.283V160.083L312.869 152.483C285.802 127.683 255.002 118.217 221.802 124.483Z" fill="white"/>
<path d="M580.471 174.884C607.671 232.217 607.538 297.684 580.338 370.751C573.271 389.417 561.271 415.417 552.338 430.751C549.005 436.484 546.605 441.684 547.005 442.351C547.405 442.884 551.138 443.817 555.405 444.217C570.205 445.951 586.071 452.217 599.138 461.817L605.805 466.617L611.005 460.884C639.938 429.017 664.471 389.284 674.205 358.351C694.205 295.551 675.405 222.751 629.671 186.484C614.871 174.617 601.005 168.484 578.205 163.284L574.605 162.484L580.471 174.884Z" fill="white"/>
<path d="M94.8681 165.817C55.8015 176.35 25.4014 206.217 9.80145 249.15C1.00145 273.817 -2.19855 305.017 1.53478 329.95C7.80145 370.35 30.0681 412.084 69.5348 457.417C73.1348 461.684 76.7348 465.15 77.2681 465.15C77.9348 465.15 81.2681 463.15 84.7348 460.617C97.1348 451.817 114.201 445.15 129.535 443.15C133.001 442.75 135.801 442.084 135.801 441.684C135.801 441.284 131.935 433.95 127.135 425.284C100.201 376.617 84.3348 324.617 81.8015 277.15C79.9348 243.15 87.0014 207.417 101.801 176.084C108.468 162.084 108.468 162.217 94.8681 165.817Z" fill="white"/>
<path d="M131.805 483.417C106.605 487.684 86.6052 507.55 82.4719 532.617C80.7385 542.884 80.7385 622.084 82.4719 632.35C86.4719 656.75 106.872 677.15 131.272 681.15C141.939 682.884 540.339 682.884 551.005 681.15C575.005 677.284 595.139 657.417 599.805 633.284C601.539 623.95 601.539 541.017 599.805 531.684C595.272 507.684 575.939 488.35 551.939 483.817C545.005 482.484 139.539 482.084 131.805 483.417ZM351.939 523.817C383.272 529.817 405.139 560.484 400.072 591.284C394.739 623.817 364.872 646.084 333.005 641.417C300.072 636.484 277.272 606.084 282.339 573.684C287.539 540.217 319.139 517.55 351.939 523.817ZM149.939 564.617C159.672 569.284 163.939 582.35 158.739 591.817C155.805 597.284 147.539 602.484 141.939 602.484C134.872 602.484 126.872 597.55 123.939 591.284C120.472 584.217 120.472 580.75 123.805 573.817C128.605 563.95 140.072 559.95 149.939 564.617ZM229.939 564.617C239.672 569.284 243.939 582.35 238.739 591.817C235.805 597.284 227.539 602.484 221.939 602.484C214.872 602.484 206.872 597.55 203.939 591.284C200.472 584.217 200.472 580.75 203.805 573.817C208.605 563.95 220.072 559.95 229.939 564.617ZM469.939 564.617C483.939 571.284 484.605 591.284 471.139 599.284C468.072 601.017 463.672 602.484 461.139 602.484C451.405 602.484 441.139 592.217 441.139 582.35C441.139 579.817 442.605 575.417 444.339 572.617C449.805 563.417 460.472 560.084 469.939 564.617ZM551.005 565.55C560.472 570.884 563.672 581.817 558.605 591.55C555.672 597.284 547.405 602.484 541.139 602.484C531.539 602.484 521.139 592.217 521.139 582.617C521.139 576.084 525.805 568.217 531.539 565.284C538.072 561.817 544.605 561.817 551.005 565.55Z" fill="white"/>
<path d="M331.933 565.017C326.333 567.95 321.133 576.35 321.133 582.35C321.133 592.217 331.533 602.483 341.666 602.483C347.933 602.483 355.533 597.55 358.599 591.55C367.533 574.217 349.133 555.817 331.933 565.017Z" fill="white"/>
</svg>
